<?xml version="1.0" encoding="UTF-8" standalone="no"?>
<!DOCTYPE svg PUBLIC "-//W3C//DTD SVG 1.1//EN"
 "http://www.w3.org/Graphics/SVG/1.1/DTD/svg11.dtd">
<!-- Generated by graphviz version 2.40.1 (20161225.0304)
 -->
<!-- Title: G Pages: 1 -->
<svg width="663pt" height="376pt"
 viewBox="0.00 0.00 663.08 376.26" xmlns="http://www.w3.org/2000/svg" xmlns:xlink="http://www.w3.org/1999/xlink">
<g id="graph0" class="graph" transform="scale(1 1) rotate(0) translate(4 372.2558)">
<title>G</title>
<polygon fill="#ffffff" stroke="transparent" points="-4,4 -4,-372.2558 659.0755,-372.2558 659.0755,4 -4,4"/>
<!-- 5 seed soaker -->
<g id="node1" class="node">
<title>5 seed soaker</title>
<polygon fill="none" stroke="#000000" points="455.873,-214.2558 364.043,-214.2558 364.043,-178.2558 455.873,-178.2558 455.873,-214.2558"/>
<text text-anchor="middle" x="409.958" y="-192.0558" font-family="Times,serif" font-size="14.00" fill="#000000">5 seed soaker</text>
</g>
<!-- water -->
<g id="node3" class="node">
<title>water</title>
<ellipse fill="none" stroke="#000000" cx="589.7013" cy="-131.2558" rx="29.9931" ry="18"/>
<text text-anchor="middle" x="589.7013" y="-127.0558" font-family="Times,serif" font-size="14.00" fill="#000000">water</text>
</g>
<!-- 5 seed soaker&#45;&gt;water -->
<g id="edge13" class="edge">
<title>5 seed soaker&#45;&gt;water</title>
<path fill="none" stroke="#000000" d="M455.7799,-179.6854C486.4834,-168.5822 526.2998,-154.1835 554.5147,-143.9802"/>
<polygon fill="#000000" stroke="#000000" points="555.7631,-147.2507 563.9768,-140.5585 553.3826,-140.6679 555.7631,-147.2507"/>
<text text-anchor="middle" x="489.9961" y="-174.0558" font-family="Times,serif" font-size="14.00" fill="#000000">120%</text>
</g>
<!-- 5 seed mix -->
<g id="node7" class="node">
<title>5 seed mix</title>
<ellipse fill="none" stroke="#000000" cx="589.7013" cy="-216.2558" rx="48.3427" ry="18"/>
<text text-anchor="middle" x="589.7013" y="-212.0558" font-family="Times,serif" font-size="14.00" fill="#000000">5 seed mix</text>
</g>
<!-- 5 seed soaker&#45;&gt;5 seed mix -->
<g id="edge12" class="edge">
<title>5 seed soaker&#45;&gt;5 seed mix</title>
<path fill="none" stroke="#000000" d="M455.7799,-201.3544C479.2737,-203.9686 508.1032,-207.1764 532.9879,-209.9453"/>
<polygon fill="#000000" stroke="#000000" points="532.6989,-213.4347 543.0247,-211.0621 533.4731,-206.4776 532.6989,-213.4347"/>
<text text-anchor="middle" x="489.9961" y="-209.0558" font-family="Times,serif" font-size="14.00" fill="#000000">100%</text>
</g>
<!-- 80% starter -->
<g id="node2" class="node">
<title>80% starter</title>
<polygon fill="none" stroke="#000000" points="450.0997,-110.2558 369.8163,-110.2558 369.8163,-74.2558 450.0997,-74.2558 450.0997,-110.2558"/>
<text text-anchor="middle" x="409.958" y="-88.0558" font-family="Times,serif" font-size="14.00" fill="#000000">80% starter</text>
</g>
<!-- 80% starter&#45;&gt;water -->
<g id="edge15" class="edge">
<title>80% starter&#45;&gt;water</title>
<path fill="none" stroke="#000000" d="M450.2959,-101.0082C480.5722,-107.5774 521.7556,-116.5132 551.5013,-122.9673"/>
<polygon fill="#000000" stroke="#000000" points="550.9943,-126.4387 561.5091,-125.1388 552.4787,-119.5979 550.9943,-126.4387"/>
<text text-anchor="middle" x="489.9961" y="-115.0558" font-family="Times,serif" font-size="14.00" fill="#000000">80%</text>
</g>
<!-- white flour -->
<g id="node4" class="node">
<title>white flour</title>
<ellipse fill="none" stroke="#000000" cx="589.7013" cy="-27.2558" rx="48.8441" ry="18"/>
<text text-anchor="middle" x="589.7013" y="-23.0558" font-family="Times,serif" font-size="14.00" fill="#000000">white flour</text>
</g>
<!-- 80% starter&#45;&gt;white flour -->
<g id="edge14" class="edge">
<title>80% starter&#45;&gt;white flour</title>
<path fill="none" stroke="#000000" d="M450.2959,-77.6685C478.4726,-67.4791 516.0961,-53.8734 545.1553,-43.3648"/>
<polygon fill="#000000" stroke="#000000" points="546.4422,-46.6214 554.6559,-39.9292 544.0616,-40.0386 546.4422,-46.6214"/>
<text text-anchor="middle" x="489.9961" y="-71.0558" font-family="Times,serif" font-size="14.00" fill="#000000">100%</text>
</g>
<!-- salt -->
<g id="node5" class="node">
<title>salt</title>
<ellipse fill="none" stroke="#000000" cx="589.7013" cy="-283.2558" rx="27" ry="18"/>
<text text-anchor="middle" x="589.7013" y="-279.0558" font-family="Times,serif" font-size="14.00" fill="#000000">salt</text>
</g>
<!-- malthouse flour -->
<g id="node6" class="node">
<title>malthouse flour</title>
<ellipse fill="none" stroke="#000000" cx="589.7013" cy="-350.2558" rx="65.2486" ry="18"/>
<text text-anchor="middle" x="589.7013" y="-346.0558" font-family="Times,serif" font-size="14.00" fill="#000000">malthouse flour</text>
</g>
<!-- Small Seedy Malt -->
<g id="node8" class="node">
<title>Small Seedy Malt</title>
<polygon fill="none" stroke="#000000" points="116.7363,-289.2558 .0869,-289.2558 .0869,-253.2558 116.7363,-253.2558 116.7363,-289.2558"/>
<text text-anchor="middle" x="58.4116" y="-267.0558" font-family="Times,serif" font-size="14.00" fill="#000000">Small Seedy Malt</text>
</g>
<!-- Seedy Malt Dough -->
<g id="node9" class="node">
<title>Seedy Malt Dough</title>
<polygon fill="none" stroke="#000000" points="302.4719,-289.2558 180.9402,-289.2558 180.9402,-253.2558 302.4719,-253.2558 302.4719,-289.2558"/>
<text text-anchor="middle" x="241.7061" y="-267.0558" font-family="Times,serif" font-size="14.00" fill="#000000">Seedy Malt Dough</text>
</g>
<!-- Small Seedy Malt&#45;&gt;Seedy Malt Dough -->
<g id="edge1" class="edge">
<title>Small Seedy Malt&#45;&gt;Seedy Malt Dough</title>
<path fill="none" stroke="#000000" d="M116.659,-271.2558C133.7465,-271.2558 152.6287,-271.2558 170.4307,-271.2558"/>
<polygon fill="#000000" stroke="#000000" points="170.7657,-274.7559 180.7657,-271.2558 170.7656,-267.7559 170.7657,-274.7559"/>
<text text-anchor="middle" x="148.8232" y="-274.0558" font-family="Times,serif" font-size="14.00" fill="#000000">600g</text>
</g>
<!-- Seedy Malt Dough&#45;&gt;5 seed soaker -->
<g id="edge7" class="edge">
<title>Seedy Malt Dough&#45;&gt;5 seed soaker</title>
<path fill="none" stroke="#000000" d="M282.4352,-253.1004C305.8056,-242.6828 335.3293,-229.5223 360.0823,-218.4884"/>
<polygon fill="#000000" stroke="#000000" points="361.6041,-221.6421 369.3127,-214.3739 358.754,-215.2486 361.6041,-221.6421"/>
<text text-anchor="middle" x="333.4199" y="-238.0558" font-family="Times,serif" font-size="14.00" fill="#000000">50%</text>
</g>
<!-- Seedy Malt Dough&#45;&gt;80% starter -->
<g id="edge8" class="edge">
<title>Seedy Malt Dough&#45;&gt;80% starter</title>
<path fill="none" stroke="#000000" d="M245.992,-253.1888C254.5366,-221.1473 276.758,-154.353 320.5889,-118.2558 331.73,-109.0804 345.9762,-103.1426 359.8044,-99.3001"/>
<polygon fill="#000000" stroke="#000000" points="360.8734,-102.6417 369.7492,-96.8562 359.2028,-95.8439 360.8734,-102.6417"/>
<text text-anchor="middle" x="333.4199" y="-121.0558" font-family="Times,serif" font-size="14.00" fill="#000000">45%</text>
</g>
<!-- Seedy Malt Dough&#45;&gt;water -->
<g id="edge10" class="edge">
<title>Seedy Malt Dough&#45;&gt;water</title>
<path fill="none" stroke="#000000" d="M254.6985,-252.9372C274.7771,-226.2519 316.0983,-177.457 364.251,-155.2558 396.2371,-140.5084 493.6833,-134.6511 549.433,-132.4614"/>
<polygon fill="#000000" stroke="#000000" points="549.8002,-135.9503 559.6637,-132.0823 549.541,-128.9551 549.8002,-135.9503"/>
<text text-anchor="middle" x="409.958" y="-158.0558" font-family="Times,serif" font-size="14.00" fill="#000000">47.5%</text>
</g>
<!-- Seedy Malt Dough&#45;&gt;salt -->
<g id="edge11" class="edge">
<title>Seedy Malt Dough&#45;&gt;salt</title>
<path fill="none" stroke="#000000" d="M302.7204,-273.3598C374.8045,-275.8455 492.4679,-279.9029 552.2671,-281.965"/>
<polygon fill="#000000" stroke="#000000" points="552.2755,-285.4672 562.3902,-282.314 552.5168,-278.4714 552.2755,-285.4672"/>
<text text-anchor="middle" x="409.958" y="-281.0558" font-family="Times,serif" font-size="14.00" fill="#000000">3%</text>
</g>
<!-- Seedy Malt Dough&#45;&gt;malthouse flour -->
<g id="edge9" class="edge">
<title>Seedy Malt Dough&#45;&gt;malthouse flour</title>
<path fill="none" stroke="#000000" d="M302.7204,-285.107C366.4633,-299.5775 465.8473,-322.1392 529.344,-336.5538"/>
<polygon fill="#000000" stroke="#000000" points="528.689,-339.9941 539.2157,-338.7948 530.2387,-333.1678 528.689,-339.9941"/>
<text text-anchor="middle" x="409.958" y="-321.0558" font-family="Times,serif" font-size="14.00" fill="#000000">100%</text>
</g>
<!-- Small White Wild -->
<g id="node10" class="node">
<title>Small White Wild</title>
<polygon fill="none" stroke="#000000" points="116.735,-79.2558 .0882,-79.2558 .0882,-43.2558 116.735,-43.2558 116.735,-79.2558"/>
<text text-anchor="middle" x="58.4116" y="-57.0558" font-family="Times,serif" font-size="14.00" fill="#000000">Small White Wild</text>
</g>
<!-- Basic White Sour -->
<g id="node11" class="node">
<title>Basic White Sour</title>
<polygon fill="none" stroke="#000000" points="298.7198,-79.2558 184.6923,-79.2558 184.6923,-43.2558 298.7198,-43.2558 298.7198,-79.2558"/>
<text text-anchor="middle" x="241.7061" y="-57.0558" font-family="Times,serif" font-size="14.00" fill="#000000">Basic White Sour</text>
</g>
<!-- Small White Wild&#45;&gt;Basic White Sour -->
<g id="edge2" class="edge">
<title>Small White Wild&#45;&gt;Basic White Sour</title>
<path fill="none" stroke="#000000" d="M116.9111,-61.2558C135.1215,-61.2558 155.3498,-61.2558 174.1274,-61.2558"/>
<polygon fill="#000000" stroke="#000000" points="174.3881,-64.7559 184.388,-61.2558 174.388,-57.7559 174.3881,-64.7559"/>
<text text-anchor="middle" x="148.8232" y="-64.0558" font-family="Times,serif" font-size="14.00" fill="#000000">600g</text>
</g>
<!-- Basic White Sour&#45;&gt;80% starter -->
<g id="edge3" class="edge">
<title>Basic White Sour&#45;&gt;80% starter</title>
<path fill="none" stroke="#000000" d="M298.7346,-70.7473C314.1722,-73.4059 330.8661,-76.3624 346.251,-79.2558 350.6122,-80.076 355.1363,-80.9509 359.6704,-81.8443"/>
<polygon fill="#000000" stroke="#000000" points="359.0615,-85.2917 369.553,-83.8157 360.4309,-78.427 359.0615,-85.2917"/>
<text text-anchor="middle" x="333.4199" y="-82.0558" font-family="Times,serif" font-size="14.00" fill="#000000">90%</text>
</g>
<!-- Basic White Sour&#45;&gt;water -->
<g id="edge5" class="edge">
<title>Basic White Sour&#45;&gt;water</title>
<path fill="none" stroke="#000000" d="M298.8874,-46.7882C354.4022,-35.7532 439.7985,-26.9064 506.3271,-56.2558 531.7386,-67.4662 554.719,-89.4722 570.0868,-106.761"/>
<polygon fill="#000000" stroke="#000000" points="567.8244,-109.4985 576.9967,-114.8013 573.1333,-104.936 567.8244,-109.4985"/>
<text text-anchor="middle" x="409.958" y="-44.0558" font-family="Times,serif" font-size="14.00" fill="#000000">55%</text>
</g>
<!-- Basic White Sour&#45;&gt;white flour -->
<g id="edge4" class="edge">
<title>Basic White Sour&#45;&gt;white flour</title>
<path fill="none" stroke="#000000" d="M272.1952,-43.1951C296.2638,-30.0401 331.1869,-13.3355 364.251,-6.2558 424.109,6.5609 494.5656,-3.9854 540.5781,-14.214"/>
<polygon fill="#000000" stroke="#000000" points="540.0528,-17.6846 550.5833,-16.5191 541.6244,-10.8633 540.0528,-17.6846"/>
<text text-anchor="middle" x="409.958" y="-9.0558" font-family="Times,serif" font-size="14.00" fill="#000000">100%</text>
</g>
<!-- Basic White Sour&#45;&gt;salt -->
<g id="edge6" class="edge">
<title>Basic White Sour&#45;&gt;salt</title>
<path fill="none" stroke="#000000" d="M250.3161,-79.4877C267.2191,-113.2492 308.0503,-185.4925 364.251,-223.2558 395.1235,-244.0002 497.7399,-265.8618 553.2667,-276.5602"/>
<polygon fill="#000000" stroke="#000000" points="552.906,-280.0543 563.3841,-278.4863 554.2151,-273.1778 552.906,-280.0543"/>
<text text-anchor="middle" x="409.958" y="-257.0558" font-family="Times,serif" font-size="14.00" fill="#000000">3%</text>
</g>
</g>
</svg>
